<?xml version="1.0" encoding="utf-8"?>
<svg version="1.1" id="Logo" xmlns="http://www.w3.org/2000/svg" xmlns:xlink="http://www.w3.org/1999/xlink" x="0px" y="0px" viewBox="0 0 212.6 226.8" style="enable-background:new 0 0 212.6 226.8;" xml:space="preserve">
<style type="text/css">
	.white { fill:#FFFFFF; }
	.orange { fill:#100C54; }
	.darkblue { fill:#F49E2D; }
</style>
<path id="text-bg" class="white" d="M181.8,125.3c0-1.8-0.1-3.5-0.4-5.2c-0.2-0.8,0.3-1.4,0.6-2c1.1-3.1,2.4-6.2,4.4-8.9
	c1.5-2.2,3.3-4,6-4.6c2-0.5,3.8,0,5.4,1.3c2.5,2.1,3.3,5.5,2.1,8.6c-0.6,1.4-1.3,2.7-2.3,3.7c-0.5,0.6-0.8,0.7-1.2-0.2
	c-1-2.1-2.1-4.1-3.1-6.1c-0.3-0.7-0.6-0.9-1.2-0.3c-4.1,3.4-5.2,7.2-3.5,12.3c1.2,3.6,3.4,6.6,5.6,9.6c1,1.3,2,2.6,2.9,3.9
	c5.2,7,5.8,14.4,2.5,22.3c-2.6,6.1-6.9,10.9-11.9,15.1c-9.4,7.9-20,13.7-31.3,18.5c-8.5,3.6-17.1,6.7-25.4,10.8
	c-8,4-15.9,8.2-23,13.8c-1.6,1.3-1.6,1.3-3.2,0c-2.7-2.1-5.6-3.9-8.5-5.8c-6.9-4.4-14.2-8.1-21.7-11.3c-5.8-2.5-11.7-4.9-17.6-7.3
	c-7.6-3.2-15.1-6.7-21.9-11.3c-6.2-4.2-12.3-8.6-17-14.6c-3.4-4.3-5.9-9-6.6-14.6c-0.6-4.8,0.2-9.2,2.8-13.3c1.7-2.8,3.9-5.3,5.7-8
	c2.2-3.1,4.2-6.2,4.9-10c0.8-4.4-0.8-7.7-4.3-10.3c-0.6-0.5-0.7,0-0.9,0.4c-1.1,2.1-2.1,4.2-3.2,6.3c-0.3,0.5-0.5,0.8-1,0.3
	c-2.9-3.2-4.4-7-1.7-10.9c2.1-3.1,5.6-3.9,8.8-2c2.2,1.3,3.6,3.3,4.9,5.4c1.6,2.6,2.6,5.4,3.7,8.2c0.2,0.5,0.1,1,0,1.5
	c-1.4,10.7,1.7,20.1,8.5,28.3c5.1,6.1,11.5,10.5,18.8,13.7c7.5,3.4,15.1,6.6,22.5,10.1c7.1,3.2,14,6.7,20.1,11.6
	c1.7,1.4,3.3,2.8,4.6,4.5c0.3,0.4,0.5,0.7,1,0.1c4.2-5,9.7-8.4,15.3-11.5c8-4.4,16.4-7.7,24.7-11.4c6.2-2.8,12.4-5.4,17.9-9.5
	c8-5.9,13.8-13.5,16.1-23.4C181.5,130.4,181.8,127.9,181.8,125.3z M193,120.5c-1.2,0-2.2-0.2-2.8-1.3c-0.6-1.2-0.6-2.4,0.1-3.5
	c0.5-0.6,0.8-1.7,1.6-1.6c0.6,0,0.7,1.1,1.1,1.7c0.6,1.1,1.1,2.2,1.7,3.3c0.6,1,0.1,1.2-0.7,1.3C193.6,120.4,193.3,120.4,193,120.5z
	 M20.8,113.7c1.1,1.3,2.3,2.3,2.1,4c-0.2,2.2-3.1,3.7-5,2.4c-0.2-0.1-0.2-0.3-0.1-0.5C18.7,117.8,19.7,115.8,20.8,113.7z
	 M11.6,116.2c3.3,5.7,6.1,7.3,11.4,5.2c-0.8,3.3-2.1,6.4-4.3,8.9c-3.1,3.6-5.7,7.5-7.8,11.7c-0.4,0.7-0.7,0.8-1.4,0.5
	c-1.3-0.6-2.5-1.2-3.6-2.1c-1.9-1.6-2.5-3.6-1.7-5.9c0.2-0.6,0.4-1.1,0.7-1.7c1.5-2.6,2.9-5.2,4.1-8
	C10.2,122.2,11.1,119.4,11.6,116.2z M190,121.5c0.2,0,0.3,0,0.5,0.1c4.2,1.8,6.7,0.2,9.4-3.4c0.4-0.6,0.8-1.3,1.3-2.1
	c0.9,6.2,3.7,11.3,6.6,16.4c0.8,1.5,1.5,3.1,1.1,4.8c-0.4,1.9-1.7,3.2-3.4,4.2c-2.9,1.8-2.9,1.7-4.5-1.2c-1.9-3.5-4.1-6.7-6.7-9.7
	c-2.2-2.5-3.6-5.5-4.3-8.8C189.9,121.7,190,121.6,190,121.5z"/>
<path id="shield-bg" class="orange" d="M106.3,11.3c19,0,38,0,57,0c0.8,0,1.4,0.2,2,0.8c5.2,5.6,10.4,11.2,15.6,16.7
	c0.4,0.4,0.8,0.7,0.3,1.4c-4.1,6.5-6.4,13.7-8.1,21.2c-2.4,10.3-2.9,20.8-2.6,31.4c0.3,8.8,1.4,17.6,3.7,26.1c0.8,3.1,1.5,6.3,2,9.5
	c0.3,2,0.7,4.1,0.5,6.2c-0.3,3-0.2,6.1-0.8,9.1c-1.2,5.6-4.4,9.8-8.2,13.8c-5.8,6-12.9,9.9-20.3,13.3c-6,2.8-12.2,5-18.2,7.7
	c-6.3,2.8-12.5,6-18.1,10c-1.5,1-2.9,2.2-4.1,3.5c-0.5,0.5-0.7,0.5-1.2,0c-4.4-4.4-9.9-7.3-15.3-10.2c-10.4-5.4-21.6-8.8-32-14.3
	c-6.4-3.4-11.8-7.9-16.5-13.3c-3.8-4.3-5.4-9.5-5.9-15.1c-0.7-6.8,0.3-13.3,2.2-19.8c1.9-6.8,3.1-13.8,3.5-20.9
	c0.7-11,0.5-21.9-1.4-32.7c-1.5-8.4-3.9-16.4-8.1-23.9c-1.2-2.2-1.2-2.2,0.4-4c4.9-5.2,9.8-10.4,14.7-15.7c0.5-0.6,1.1-0.8,1.9-0.8
	C68.3,11.3,87.3,11.3,106.3,11.3L106.3,11.3z"/>
<path id="frame" class="darkblue " d="M167.1,6c0,0.6,0.5,0.8,0.8,1.1c6.4,6.9,12.8,13.9,19.2,20.8c0.7,0.7,0.7,1.2,0.2,2
	c-3.4,5.8-6.8,11.7-8.8,18.2c-1.7,5.4-2.6,11-3,16.6c-0.4,5.3-0.5,10.7-0.4,16.1c0.2,9.8,1.8,19.4,4.2,28.9c0.5,2,1,4.1,1.5,6.3
	c0.5-0.4,0.5-0.9,0.6-1.3c1.1-3.2,2.5-6.2,4.9-8.7c2-2.1,4.4-3.3,7.3-3.3c3.6,0,5.9,1.5,7.3,4.8c1.3,3.1,1.8,6.4,2.4,9.6
	c0.4,1.8,1,3.5,1.8,5.2c2.1,4.2,4.3,8.5,5.6,13.1c0.2,0.7,0.2,1.3,0,2c-0.8,3.3-2.8,5.5-5.9,6.8c-1.9,0.8-1.9,0.9-1.7,2.9
	c0.8,10.8-3.6,19.4-11.4,26.6c-8,7.3-17.4,12.7-27,17.7c-9.8,5-20,9.1-30.1,13.3c-10,4.1-19.1,9.6-27.4,16.5
	c-0.5,0.4-0.8,0.7-1.4,0.1c-9.8-8.4-21.1-14.2-33-19c-10.9-4.3-21.7-9.1-31.9-14.9c-8-4.5-15.7-9.5-22.2-16.2
	c-5.6-5.8-8.8-12.7-9.1-20.8c-0.1-1.5,0.1-3,0.2-4.4c0.1-0.7,0-1-0.7-1.3c-0.8-0.4-1.6-0.8-2.5-1.2c-2.9-1.3-3.9-3.9-4.8-6.7
	c-0.2-0.6,0.2-1.2,0.3-1.8c1.1-3.8,2.7-7.4,4.6-10.9c1.8-3.3,2.8-6.8,3.4-10.4c0.3-1.8,0.7-3.6,1.4-5.3c2-5.2,6.7-7.1,11.7-4.7
	c3.3,1.6,5.2,4.4,6.8,7.5c0.7,1.5,1.3,3,1.9,4.9c0.5-1.9,0.8-3.4,1.2-5c1.8-7.5,3.4-15,4.1-22.6c0.6-6.7,0.5-13.5,0.2-20.3
	c-0.3-6.1-1-12.1-2.6-18c-1.8-6.7-5-12.7-8.5-18.6c-0.5-0.9-1.4-1.8-1.4-2.7c0-0.9,1.2-1.6,1.9-2.3c6-6.5,12-13.1,18.1-19.6
	c0.3-0.3,0.7-0.6,1-1C86.3,6,126.7,6,167.1,6z M190,121.5c-0.1,0-0.2,0-0.3,0c0,0.1,0.1,0.1,0.1,0.2c0.7,3.3,2.1,6.3,4.3,8.8
	c2.6,3,4.8,6.3,6.7,9.7c1.6,2.9,1.6,2.9,4.5,1.2c1.6-1,3-2.2,3.4-4.2c0.3-1.7-0.3-3.3-1.1-4.8c-2.9-5.1-5.7-10.2-6.6-16.4
	c-0.5,0.9-0.8,1.5-1.3,2.1c-2.6,3.5-5.1,5.2-9.4,3.4C190.4,121.6,190.2,121.6,190,121.5z M106.3,11.3L106.3,11.3c-19,0-38,0-57,0
	c-0.8,0-1.3,0.2-1.9,0.8c-4.9,5.2-9.8,10.5-14.7,15.7c-1.7,1.8-1.7,1.8-0.4,4c4.2,7.5,6.6,15.5,8.1,23.9c1.9,10.9,2.1,21.8,1.4,32.7
	c-0.5,7.1-1.6,14.1-3.5,20.9c-1.8,6.5-2.8,13-2.2,19.8c0.5,5.6,2.1,10.8,5.9,15.1c4.7,5.4,10.1,9.9,16.5,13.3
	c10.3,5.5,21.6,8.9,32,14.3c5.5,2.9,10.9,5.7,15.3,10.2c0.5,0.5,0.7,0.5,1.2,0c1.2-1.4,2.6-2.5,4.1-3.5c5.7-4,11.8-7.2,18.1-10
	c6-2.7,12.2-4.9,18.2-7.7c7.4-3.5,14.6-7.3,20.3-13.3c3.8-4,7.1-8.2,8.2-13.8c0.6-3,0.6-6.1,0.8-9.1c0.2-2.1-0.2-4.2-0.5-6.2
	c-0.5-3.2-1.2-6.4-2-9.5c-2.3-8.6-3.5-17.3-3.7-26.1c-0.3-10.5,0.3-21,2.6-31.4c1.7-7.4,4-14.6,8.1-21.2c0.5-0.7,0-1-0.3-1.4
	c-5.2-5.6-10.4-11.1-15.6-16.7c-0.6-0.6-1.1-0.8-2-0.8C144.3,11.3,125.3,11.3,106.3,11.3z M181.8,125.3c0.1,2.6-0.3,5.1-0.9,7.6
	c-2.3,9.9-8.1,17.4-16.1,23.4c-5.5,4.1-11.7,6.7-17.9,9.5c-8.3,3.7-16.8,7-24.7,11.4c-5.6,3.1-11.1,6.5-15.3,11.5
	c-0.5,0.6-0.7,0.2-1-0.1c-1.4-1.7-2.9-3.2-4.6-4.5c-6.1-4.9-13-8.4-20.1-11.6c-7.5-3.4-15-6.7-22.5-10.1
	c-7.2-3.3-13.7-7.6-18.8-13.7c-6.8-8.2-10-17.6-8.5-28.3c0.1-0.5,0.2-1,0-1.5c-1.1-2.8-2.2-5.6-3.7-8.2c-1.3-2.1-2.7-4.1-4.9-5.4
	c-3.2-1.9-6.7-1.1-8.8,2c-2.7,3.9-1.2,7.7,1.7,10.9c0.5,0.6,0.7,0.3,1-0.3c1.1-2.1,2.1-4.2,3.2-6.3c0.2-0.4,0.3-0.9,0.9-0.4
	c3.5,2.6,5.1,5.9,4.3,10.3c-0.7,3.8-2.7,7-4.9,10c-1.9,2.7-4,5.2-5.7,8c-2.5,4.1-3.4,8.6-2.8,13.3c0.7,5.5,3.2,10.2,6.6,14.6
	c4.7,6,10.8,10.4,17,14.6c6.8,4.7,14.3,8.2,21.9,11.3c5.9,2.4,11.8,4.8,17.6,7.3c7.5,3.2,14.8,6.9,21.7,11.3
	c2.9,1.9,5.8,3.7,8.5,5.8c1.6,1.3,1.6,1.3,3.2,0c7-5.6,14.9-9.9,23-13.8c8.2-4.1,16.9-7.2,25.4-10.8c11.2-4.8,21.8-10.6,31.3-18.5
	c5-4.2,9.3-9,11.9-15.1c3.3-7.9,2.8-15.4-2.5-22.3c-1-1.3-2-2.6-2.9-3.9c-2.2-3-4.4-6-5.6-9.6c-1.7-5.1-0.6-8.9,3.5-12.3
	c0.7-0.6,0.9-0.4,1.2,0.3c1,2.1,2.1,4.1,3.1,6.1c0.4,0.9,0.7,0.7,1.2,0.2c1-1.1,1.8-2.4,2.3-3.7c1.2-3.1,0.4-6.4-2.1-8.6
	c-1.6-1.3-3.4-1.8-5.4-1.3c-2.7,0.6-4.5,2.5-6,4.6c-1.9,2.7-3.3,5.8-4.4,8.9c-0.2,0.6-0.7,1.2-0.6,2
	C181.7,121.8,181.8,123.6,181.8,125.3z M11.6,116.2c-0.5,3.2-1.3,6-2.6,8.7s-2.6,5.4-4.1,8c-0.3,0.5-0.5,1.1-0.7,1.7
	c-0.7,2.3-0.1,4.3,1.7,5.9c1.1,0.9,2.4,1.5,3.6,2.1c0.7,0.3,1,0.3,1.4-0.5c2.1-4.3,4.7-8.2,7.8-11.7c2.2-2.6,3.5-5.6,4.3-8.9
	C17.7,123.6,14.9,121.9,11.6,116.2z M193,120.5c0.3,0,0.6,0,0.9-0.1c0.9-0.1,1.3-0.3,0.7-1.3c-0.6-1.1-1.1-2.2-1.7-3.3
	c-0.3-0.6-0.5-1.7-1.1-1.7c-0.7,0-1.1,1-1.6,1.6c-0.8,1.1-0.8,2.3-0.1,3.5C190.8,120.3,191.9,120.4,193,120.5z M20.8,113.7
	c-1,2.1-2,4-3,6c-0.1,0.2-0.1,0.3,0.1,0.5c1.9,1.2,4.8-0.2,5-2.4C23,116,21.8,115,20.8,113.7z"/>
<path id="text" class="orange" d="M130.8,176.5c0.5-0.5,1.2-0.6,1.8-1c0.6-0.3,0.7,0.2,0.9,0.5c1.5,1.8,2.9,3.6,4.4,5.4
	c0.1,0.2,0.2,0.4,0.6,0.4c0.2-0.3,0-0.6-0.1-0.9c-0.6-2.1-1.2-4.2-1.9-6.3c-0.2-0.6-0.1-0.8,0.5-1.1c2.1-1,2.1-1,3.8,0.6
	c1.5,1.4,2.9,2.8,4.4,4.2c0.2,0.2,0.3,0.5,0.8,0.3c-1-2.2-2.1-4.5-3.1-6.7c-0.2-0.4-0.8-1,0.2-1.1c0.7-0.1,1.3-1.5,2.1,0
	c1.8,3.5,3.4,7,5,10.6c0.3,0.6,0.2,0.9-0.4,1.2c-2.6,1.2-2.6,1.3-4.7-0.8c-1.7-1.7-3.3-3.5-4.9-5.3c-0.1,0.1-0.3,0.2-0.4,0.4
	c0.5,1.8,1.1,3.6,1.6,5.4c0.3,0.9,0.5,1.8,0.8,2.8c0.2,0.6,0,0.8-0.5,1.1c-2.5,1.2-2.5,1.2-4.3-0.9c-2.1-2.7-4.2-5.4-6.3-8
	C131.1,177,131,176.8,130.8,176.5z M168.6,161.9c-0.8-0.4-0.6-0.7-0.1-1.2c0.9-0.8,1.5-0.9,2.5-0.2c2.6,1.8,5.3,3.3,7.9,5
	c2.9,1.9,2.9,3.8,0,5.8c-1.5,1-3.1,1.9-5,1.5c-0.6-0.1-1.2-0.4-1.9-0.9c1.4-0.5,2.4-1.6,4-1.4c0.8,0.1,1.5-0.6,1.9-1.2
	c0.3-0.5,0.1-0.9-0.2-1.1c-0.6-0.5-1.3-1-2.1-1.5c-0.2,2.4-1.2,3.5-3.5,3.5c-3.2,0-5.7-1.5-7.3-4.2c-0.9-1.4-0.3-3,1.3-3.6
	C166.9,162,167.6,162,168.6,161.9z M169.4,163.1c-0.9,0.1-1.6,0.2-2,0.9c-0.3,0.7,0.1,1.3,0.6,1.8c0.6,0.6,1.3,1.1,2,1.5
	c0.9,0.5,1.8,0.8,2.9,0.4c1-0.4,1.4-1.3,0.7-2.2C172.5,164.1,171,163.4,169.4,163.1z M69.2,186.1c-0.7,0.1-1.2,0.3-1.7,0.3
	c-1.9,0.1-3.3-1.4-2.9-3.4c0.5-2.6,2.1-4.5,4.5-5.6c1.8-0.8,3.1-0.3,4.3,1.7c0.6-1.1,1.3-2,1.8-3.1c0.6-1.3,1.3-0.3,2-0.1
	c0.9,0.3,0.1,0.8,0,1.1c-1.8,3.4-3.7,6.7-5.5,10.1c-0.2,0.4-0.4,1.1-1.1,0.6C70,187.3,68.5,187.6,69.2,186.1z M68.5,184.9
	c0.7,0,1.3-0.3,1.7-0.7c0.8-0.8,1.4-1.7,1.7-2.8c0.2-0.7,0.2-1.3-0.4-1.8s-1.3-0.4-1.9,0c-1.3,0.8-2.2,2.1-2.5,3.6
	C66.9,184.1,67.6,184.9,68.5,184.9z M84.3,189.4c0.4-0.1,0.5-0.5,0.7-0.7c1.4-1.9,2.7-3.8,4.1-5.8c0.7-1,1.9-1,2.6-0.1
	c0.2,0.3,0,0.4-0.1,0.6c-2.2,3.5-4.6,6.8-7.2,10c-0.3,0.4-0.6,0.4-1,0.2c-2-0.9-2-0.9-1.8-3c0.3-3.8,0.7-7.5,1.3-11.3
	c0.1-0.6,0.2-0.8,0.9-0.5c1,0.4,1.5,0.8,1.3,2.1c-0.4,2.6-0.6,5.2-0.8,7.7C84.2,188.9,84.1,189.1,84.3,189.4z M49.1,175.1
	c1,0.5,2,1.1,3,1.6c0.5,0.3,0.6,0.4,0.2,0.9c-1.3,1.5-1.3,1.5-3.1,0.6c-1.9-1-3.7-2-5.7-3c1.1-1,2.3-1.5,3.5-1.9c2-0.5,4-1,6-1.5
	c1.1-0.3,2.1-0.7,2.8-1.7c0.3-0.4,0.7-0.8,0.2-1.3c-0.4-0.5-0.9-0.5-1.4-0.3c-0.4,0.1-0.7,0.3-1,0.6c-0.4,0.3-0.6,0.3-1,0
	c-1.4-1-1.4-1.1,0-1.9c1.5-0.9,3.1-1.1,4.7-0.4c1.6,0.7,2,2.1,1.1,3.6c-0.9,1.6-2.4,2.5-4.2,3c-1.7,0.5-3.5,0.9-5.3,1.3
	C49.1,174.9,49.1,175,49.1,175.1z M115.6,192c0-2.8,1.5-4.9,4-5.7c1.1-0.4,2,0,2.4,1.1c0.6,1.6,1,3.3,1.4,4.9
	c0.2,0.8,0.6,1.6,1.3,2.2c-0.6,0.4-1.2,0.8-1.9,1.1c-0.1,0.1-0.4,0.2-0.4,0.2c-1.2-1-1.2,0.4-1.5,0.8c-0.7,0.8-1.3,1.5-2.3,1.9
	c-1.4,0.6-2.4,0-2.6-1.4c-0.3-1.8,0.4-3.4,1.7-4.7c0.7-0.7,1.4-1.3,2-2c0.4-0.4,0.6-0.9,0.2-1.4c-0.5-0.6-0.9-0.2-1.4,0
	c-0.4,0.2-0.8,0.6-0.9,1.1C117.6,191.4,116.7,191.7,115.6,192z M120.6,191.8c-0.8,0.9-1.7,1.5-2.2,2.5c-0.3,0.5-0.3,1,0.2,1.4
	s1,0.1,1.4-0.3C120.9,194.5,121.2,193.4,120.6,191.8z M44.4,162.8c1.5-0.9,3.1-1.4,4.8-0.9c1.9,0.6,2.4,2.3,1.3,3.9
	c-0.8,1.1-1.8,1.6-3.2,1.7c-0.6,0-1.2,0-0.7,0.9c0.2,0.5,0,1.1-0.3,1.6c-1.3,2.5-5.5,3.5-7.9,2c-1.8-1.2-1.9-3.3-0.4-4.8
	c0.7-0.6,1,0.1,1.4,0.2c0.7,0.3,1.5,0.5,0.6,1.6c-0.6,0.7-0.1,1.5,0.9,1.6c1.1,0.1,2.9-1.1,3.4-2.1c0.4-0.9-0.3-1.1-1-1.5
	c0.9-0.6,1.6-1.4,2.9-1.1c0.8,0.2,1.5-0.5,2-1.1c0.4-0.6,0.2-1-0.5-1.1c-0.2,0-0.4,0-0.6,0.1C45.6,164.9,45.1,163.8,44.4,162.8z
	 M168.7,173v0.1c-2.1,1.5-2.1,1.5-3.9-0.2c-1.1-1-2.2-2-3.3-2.9c-0.4-0.4-0.9-0.7-1.4-0.8c-0.7-0.1-1.4,0-1.8,0.6
	c-0.4,0.6-0.1,1.2,0.3,1.6c1.3,1.4,2.6,2.7,4,4c0.6,0.6,0.7,0.8-0.2,1.3c-1.2,0.7-1.8,0.7-2.8-0.4c-1.8-2.1-3.9-4.1-6-6.2
	c1.1-0.3,1.8-1.8,3.1-0.3c0.1-1.2,0.4-2,1.4-2.4c1.1-0.5,2.2-0.5,3.3-0.2c0.7,0.3,1.4,0.7,1.9,1.2
	C165.1,169.9,166.8,171.4,168.7,173C168.7,172.8,168.7,172.9,168.7,173z M113.1,191c0.4,3.3,0.9,6.5,1.2,9.7c0.1,1.3-1.3,1.4-2,2.4
	c-0.1-0.5-0.2-0.8-0.3-1.2c-0.1,0.3-0.3,0.5-0.4,0.7c-0.5,1.2-1.2,2.4-2.3,3.2c-1,0.7-1.8,0.4-2-0.8c-0.4-2.8-0.3-5.6-0.4-8.4
	c0-1,1-1.3,1.7-2.1c0.2,2.4,0.4,4.7,0.5,6.9c0,0.5-0.1,1.2,0.6,1.3c0.6,0.1,0.9-0.4,1.2-0.9c0.6-0.8,0.9-1.7,0.8-2.7
	c-0.1-1.6-0.1-3.3-0.5-4.9C110.9,192.7,111.6,191.7,113.1,191z M61.7,174.1c0.7-0.2,1.4-0.3,2.1-0.2c1.5,0.3,2.2,1.5,1.6,2.8
	c-1.2,2.3-2.9,4.3-4.5,6.4c-0.6,0.7-1.5-0.2-2.1-0.5s0.1-0.7,0.3-1c1.1-1.5,2.2-2.9,3.2-4.3c0.4-0.5,0.8-1,0.3-1.6s-1.1-0.5-1.8-0.3
	c-0.9,0.2-1.4,0.9-1.9,1.5c-0.9,1-1.8,2-2.6,3.1c-0.6,0.9-1.2,1.2-2.1,0.5c-0.3-0.2-0.6-0.3-1-0.5c2.1-2.5,4.2-4.9,6.3-7.3
	c0.7-0.8,1.3,0.2,1.9,0.3c0.6,0.2,0.1,0.5,0.1,0.8c0,0.1-0.1,0.1-0.1,0.2C61.5,174.1,61.6,174.1,61.7,174.1z M39.2,159.3
	c-1.5-0.2-2.7-0.2-3.9-0.9c1.3-0.7,2.2-1.9,3.9-1.1c0.9,0.4,2.1,0.4,3.1,0.1c1.1-0.4,1.7,0.1,2.3,0.9c-4,2.8-8,5.5-12,8.3
	c-0.4,0.3-0.7,0.3-1,0c-0.4-0.4-0.9-0.8-1.4-1.3C33,163.3,36,161.4,39.2,159.3z M104.3,197.8c-0.4-0.3-0.8-0.6-1.2-0.9
	c-0.2,2-0.5,3.8-0.7,5.7c0,0.4,0,0.9,0.4,1.1c1.2,0.6,0.9,1.6,0.7,2.6c-2-0.5-3.2-2.3-3.1-4.5c0.2-1.9,0.5-3.7,0.7-5.6
	c0-0.3,0.2-0.7,0-0.8c-1.2-0.7-0.4-1.7-0.5-2.6c0.3,0.2,0.6,0.3,0.9,0.4c0.1-0.5,0.2-0.8,0.2-1.2c0.1-1.1,1.1-0.8,1.7-0.8
	s0.2,0.7,0.2,1c0,0.7-0.1,1.3-0.2,2c0,0.3-0.1,0.6,0.2,0.7C104.8,195.6,104.6,196.6,104.3,197.8z M129.4,191.9c-0.3,0.5-1,0.6-1.5,1
	c-0.6,0.5-1,0.4-1.2-0.5c-1.1-3.8-2.3-7.5-3.5-11.3c-0.5-1.5,0.9-1.3,1.5-1.6c0.7-0.4,0.6,0.5,0.7,0.8c1.3,3.6,2.5,7.1,3.7,10.7
	C129.2,191.3,129.3,191.5,129.4,191.9z M99.5,194.9c-0.5-0.5-0.7-1.2-1.4-1c-0.6,0.2-0.7,0.8-0.9,1.3c-0.4,1.8-0.8,3.6-1.2,5.4
	c-2-0.7-2.1-0.9-1.7-2.8c0.6-2.7,1.2-5.4,1.8-8.2c0.6,0.7,1.9,0.6,1.8,1.8c0,0.2,0.2,0.2,0.4,0.1c0.7-0.5,1.2-0.1,1.6,0.4
	c0.5,0.6,0.4,1.1,0.1,1.7C99.8,194,99.7,194.4,99.5,194.9z M148.9,172.4c0.5-0.5,1.1-0.6,1.6-0.9c0.4-0.3,0.7-0.2,1,0.2
	c1.9,2.2,3.9,4.4,5.9,6.6c0.4,0.5,0.3,0.7-0.2,0.9h-0.1c-1.7,0.9-1.7,0.9-2.9-0.6C152.4,176.6,150.7,174.5,148.9,172.4z M92.1,187.2
	c0.4,0.2,0.8,0.5,1.2,0.6c0.6,0.3,0.7,0.6,0.5,1.2c-0.7,2.7-1.4,5.3-2,8c-0.2,0.7-0.2,0.8-1,0.5c-1.2-0.5-1.4-1.2-1-2.4
	C90.7,192.5,91.3,189.9,92.1,187.2z M150.1,170.2c-0.4,0.2-0.7,0.4-1.1,0.5c-1,0.5-2.2-0.1-2.4-1.2c-0.1-0.3,0.1-0.3,0.2-0.4
	c1.3-0.9,1.6-0.9,2.7,0.3C149.7,169.7,149.8,169.9,150.1,170.2z M94.3,186.8c-0.3-0.1-0.5-0.2-0.7-0.3c-1.1-0.6-1.3-1.7-0.6-2.7
	c0.2-0.3,0.4-0.2,0.6,0c0.4,0.4,1.4,0.3,1.2,1.2C94.7,185.6,94.5,186.2,94.3,186.8z M146.3,108.3c-0.1,0-0.3,0-0.4,0.1
	C145.9,108.2,146.1,108.2,146.3,108.3C146.2,108.2,146.3,108.3,146.3,108.3z"/>
<path id="motive" class="darkblue " d="M111.3,83.1c0,3.8-3.1,6.9-6.9,6.9s-6.9-3.1-6.9-7c0-3.8,3.1-6.9,6.9-6.9
	C108.1,76.1,111.3,79.2,111.3,83.1z M123,98.8c0-10.7,0-21.4,0-32.1C130.8,74.4,131.6,89.8,123,98.8z M85.5,67c0,10.4,0,20.8,0,31.3
	C78,89.8,77.8,75.8,85.5,67z M96.3,82.7c0-7.3,0-14.6,0-21.9c0-1.1,0.3-1.5,1.4-1.8c1.6-0.4,3.2-0.7,4.8-0.9c0.6-0.1,0.9,0,0.9,0.8
	c0,5.3,0,10.6,0,15.8c0,0.6-0.2,0.8-0.8,0.9c-4,0.9-7.1,4.9-5.7,9.8c0.8,2.7,2.7,4.5,5.5,5.2c0.8,0.2,1,0.5,1,1.3
	c0,4.8,0,9.6,0,14.4c0,0.9-0.3,1.1-1.1,1c-1.8-0.2-3.5-0.6-5.2-1c-0.8-0.2-0.9-0.7-0.9-1.4C96.3,97.5,96.3,90.1,96.3,82.7z
	 M112.3,82.8c0,7.4,0,14.8,0,22.2c0,0.9-0.2,1.3-1.1,1.5c-1.8,0.4-3.5,0.8-5.3,0.9c-0.6,0-0.8-0.1-0.8-0.7c0-5,0-10,0-15
	c0-0.6,0.2-0.7,0.7-0.9c3.7-1,6-3.5,6.2-7.3c0.1-3.5-1.9-6.8-5.8-7.8c-0.9-0.2-1.1-0.6-1.1-1.4c0-5,0-10.1,0-15.1
	c0-0.9,0.2-1.2,1.1-1.1c1.7,0.2,3.4,0.5,5.1,0.9c0.8,0.2,1,0.6,1,1.3C112.3,67.8,112.3,75.3,112.3,82.8z M94.3,60.2
	c0.2,0.5,0.1,0.9,0.1,1.2c0,14.1,0,28.3,0,42.4c0,1.4,0,1.4-1.2,0.8c-0.3-0.2-0.6-0.3-0.9-0.5c-4.9-2.8-4.9-2.8-4.9-8.3
	c0-10,0-19.9,0-29.9c0-0.8,0.2-1.3,0.8-1.8C90.1,62.5,92.1,61.2,94.3,60.2z M114.1,60c2.6,1,4.8,2.5,6.8,4.3
	c0.4,0.3,0.3,0.7,0.3,1.1c0,11.5,0,23,0,34.6c0,0.4,0,0.9-0.4,1.2c-2,1.7-4.2,3.2-6.7,4.2C114.1,90.2,114.1,75.2,114.1,60z
	 M132.8,82.7c0.1,15.3-12,28.2-28.4,28.3c-15.5,0.1-28.2-12.7-28.1-28.3c0.1-15.8,12.2-28.3,28.3-28.3
	C120.3,54.5,132.8,67,132.8,82.7z M129.7,82.5c0.5-13.5-11.5-25.3-25.1-25.3c-13.8,0-25.3,11.7-25.4,25.1
	c-0.1,13.6,11.5,26,26.2,25.5C118.4,107.4,130.1,96.2,129.7,82.5z M146.3,108.3c2.3-0.3,4.5-0.7,6.7-1.2c0.8-0.2,0.9,0,0.7,0.7
	c-0.7,2.9-2.3,5.4-4.3,7.6c-3,3.3-6.7,5.9-10.7,7.9c-0.2,0.1-0.5,0.1-0.5,0.4c1.4,0,2.9,0.1,4.3,0c1.1-0.1,1.3,0.2,1,1.2
	c-1.5,4.6-4.7,7.2-9.4,8c-2.3,0.4-4.6,0.1-7.2-0.3c1.5,1.9,2.8,3.5,4.3,5.4c-7.8,0.8-14.3-2.5-20.8-5.5c2.2,2.8,4.5,5.7,6.9,8.7
	c-3.1,0.2-5.9-0.3-8.6-1.4c-3.7-1.5-6.7-4-9.2-7.1c-2.4-3-4.2-6.2-5.6-9.7c-0.4-0.9-0.4-1.3,0.8-1.2c3.4,0.3,6.8,0.2,10.2,0.1
	c6.5-0.4,12.6-1.7,18.4-4.8c7.2-3.8,11.5-9.9,14.2-17.3c1.8-5,2.6-10.2,3-15.6c0.2-3,0.2-6.1-0.1-9.1c-0.2-2.5-0.6-5-0.8-7.4
	c-0.6-6-2-11.8-3.5-17.6c-2.3-9.3-5.2-18.4-8.3-27.4c-0.2-0.7-0.2-1.1,0.3-1.6c2.2-2.4,4.4-2.4,6.5,0.1c1.5,1.7,2.5,3.6,3.3,5.7
	c2.2,5.3,3.7,10.8,4.9,16.6c0.5-1.1,0.8-2,1.3-2.9c0.5-1,1.2-2,2.5-1.9c1.4,0.1,2.3,0.9,2.8,2.1c1.3,2.8,1.4,5.8,1.4,8.8
	c0,4.2-0.3,8.5-0.9,12.6c0,0,0.1,0.1,0.3,0.4c1.1-2.5,2.2-5,3.4-7.6c4.3,6.2,2.5,12.2,0,18.2c0.5,0.3,0.7-0.2,1-0.4
	c1.5-1.2,2.9-2.4,4.3-3.6c0.7-0.7,1.2-0.4,1.5,0.3c1,1.9,0.6,3.9,0,5.8c-1.3,4-3.3,7.6-5.5,11.2c-1.3,2.2-2.6,4.4-4.2,6.5
	c0.1,0.1,0.1,0.2,0.2,0.2c3.1-2.2,6.2-4.4,9.3-6.7c0.1,0.1,0.2,0.2,0.3,0.2c-1.3,9.3-5.7,16.7-14.1,21.4c-0.1,0.1-0.3,0-0.3,0.2
	C146.1,108.4,146.2,108.3,146.3,108.3z M135.9,68.7c0.3,1.6,0.7,3,0.9,4.3c0.9,5.7,1.4,11.4,0.5,17.2c-1.7,11.2-6.9,19.9-17.4,24.9
	c-3.2,1.5-6.5,2.5-9.9,3.2c-5.3,1.2-10.7,1.1-16.1,0.9c-0.4,0-0.8,0-1.2,0c-0.5,0-0.7,0.1-0.8,0.7c-0.6,6-2.5,11.4-6.1,16.3
	c-1.6,2.1-3.4,4-5.9,5.1c-0.6,0.3-1.3,0.4-2,0.6c-0.7,0.2-1.6,0.1-2-0.4c-0.3-0.5,0.4-1,0.7-1.5c2.4-4,4.7-8,6-12.5
	c0.3-0.9,0.5-1.8,0.4-2.7c-0.1-0.8-0.5-1.4-1.4-1.3c-2.1,0.4-4.3,0.2-6.4,0.2c-3.6,0-7.1-0.8-10-3c-1.1-0.8-2-1.9-2.7-3.1
	c-2.2-3.5-3.1-7.4-3.9-11.4c-0.1-0.7,0.1-0.8,0.7-0.8c5.4-0.1,10.9-0.2,16.3-0.3c0.5,0,0.9,0.2,1.4,0.4c6.9,2.7,13.9,5.1,21.4,6.2
	c6.6,0.9,13.1,0.8,19.3-1.8c7.4-3,12-8.6,14.8-15.9c3-7.6,3.5-15.6,3.2-23.7c0-0.4,0-0.8,0-1.2C135.7,69,135.8,69,135.9,68.7z
	 M64.4,121.1c1.4,0.9,2.6,1.5,4,2c0.2,0.1,0.4,0.2,0.4,0.4c0,1.2,0.3,2.4,0.3,3.6c0,1-1,1.4-1.9,1.5c-2.1,0.4-3.3-0.7-2.9-2.8
	c0.2-0.8,0.1-1.7,0.1-2.5C64.4,122.7,64.4,122,64.4,121.1z M66.6,104.8c-4.7,0-9.4,0-14,0c-0.9,0-1.1-0.2-1.1-1.1c0-1.9,0-1.9,1.9-2
	c9.2-0.2,18.4-0.4,27.6-0.6c0.8,0,1,0.2,1,1c0,1.9,0,2-1.8,2c-4.5,0-9,0-13.5,0C66.6,104.4,66.6,104.6,66.6,104.8z M64.3,22.7
	c1,1.8,1.9,3.4,2.8,5.1c0.3,0.5,0.3,1,0.3,1.6c0.3,10.8,0.5,21.7,0.8,32.5c0.3,12.5,0.6,24.9,1,37.4c0,0.8-0.1,1.1-1,1.1
	c-1.2,0-2.5,0-3.7,0.1c-1.1,0.1-1.4-0.2-1.4-1.3c-0.1-8.6-0.4-17.1-0.6-25.7c-0.3-12.4-0.6-24.9-0.9-37.3c0-1.2,0-2.3-0.1-3.5
	c-0.4-3,0.2-5.7,1.9-8.2C63.8,24,64,23.4,64.3,22.7z"/>
</svg>
